<?xml version="1.0" encoding="UTF-8"?>
<svg id="_레이어_2" data-name="레이어 2" xmlns="http://www.w3.org/2000/svg" viewBox="0 0 346.81 947.41">
  <defs>
    <style>
      .cls-1 {
        fill: #fff;
        stroke-width: 0px;
      }
    </style>
  </defs>
  <g id="_레이어_1-2" data-name="레이어 1">
    <g>
      <g>
        <path class="cls-1" d="M30.72,170.37c-7.46,1.3-11.71,2.04-16.79,2.92v52.81c4.6.87,8.81,1.67,16.21,3.07-2.56,4.54-4.07,10.56-6.54,10.99-8.78,1.51-21.01,2.37-22.11-8.87-2.03-20.77-1.97-42.02.07-62.79,1.08-11.01,13.19-10.78,22.06-9.37,2.54.4,4.18,6.39,7.09,11.23Z"/>
        <path class="cls-1" d="M316.65,167.8c2.84-3.08,5.32-8.3,8.57-8.83,8.51-1.38,19.64-.84,20.48,9.74,1.65,20.81,1.29,41.9.01,62.77-.49,8.1-18.43,13.4-24.85,8.33-1.65-1.31-2.88-5.12-2.17-6.95.86-2.21,4.01-5.02,6.13-5,8.29.09,9.48-4.52,9.29-11.22-.27-9.38-.48-18.81.05-28.17.59-10.52-.15-19.24-15.39-16.69-.71-1.33-1.41-2.66-2.12-3.99Z"/>
        <path class="cls-1" d="M335.01,467.67c-4.18,3.5-7.2,6.04-11.46,9.6-7.45-8.15-14.05-16.51-21.89-23.5-4.21-3.75-10.5-7.26-15.88-7.29-74.92-.47-149.84-.47-224.77,0-5.4.03-11.75,3.48-15.96,7.25-7.59,6.8-13.88,15.04-21.28,23.3-4.14-3.17-7.56-5.79-12.14-9.3,18.74-21.44,36.92-42.23,55.84-63.87-4.28-2.53-7.73-4.4-11-6.53-16.47-10.69-26.56-25.12-26.56-45.46,0-74.03-.17-148.07.05-222.1.07-23.29,14.11-42.54,36.52-49.53,9.24-2.88,19.35-4.08,29.08-4.16,52.04-.41,104.09-.25,156.14-.23,43.4.01,65.82,22.14,65.88,65.15.08,66.4.03,132.81.02,199.21,0,32.56-7.82,46.01-38.4,63.35,18.47,21.22,36.62,42.08,55.8,64.11ZM45.54,240.91c0,35.89-.15,71.79.05,107.68.14,24.15,15.68,41.35,39.91,41.64,58.32.69,116.65.74,174.97-.06,25.36-.35,41.39-18.25,41.43-43.49.13-69.99.14-139.98,0-209.97-.06-27.23-15.44-44.65-42.61-45.08-57.41-.92-114.85-.64-172.27-.18-20.06.16-42.97,14.96-41.8,44.49,1.38,34.94.33,69.98.33,104.97ZM67.11,430.49h212.61c-9.97-16.29-19.91-26.08-40.01-25.33-44.77,1.68-89.68,1.69-134.45,0-20.02-.76-28.46,10.19-38.15,25.33Z"/>
        <path class="cls-1" d="M173.18,272.48c-26.47.01-52.95.17-79.42-.04-19.6-.16-29.11-9.42-29.35-28.78-.3-23.33-.31-46.67,0-70,.25-18.89,9.49-28.14,28.35-28.21,53.4-.22,106.79-.24,160.19-.1,20.04.05,29.26,9.74,29.33,29.99.08,22.44.1,44.87.02,67.31-.08,20.14-9.28,29.55-29.71,29.75-26.47.26-52.95.06-79.42.08ZM172.61,257.16c25.59,0,51.19-.36,76.77.15,12.48.25,18.18-4.18,17.83-17.2-.56-21.09-.51-42.21.01-63.3.31-12.41-5.32-16.67-17.07-16.62-51.18.25-102.37.31-153.55-.02-12.9-.08-17.59,5.44-17.29,17.91.49,20.64.48,41.31-.02,61.95-.31,12.91,5.39,17.53,17.89,17.28,25.13-.49,50.28-.15,75.42-.16Z"/>
        <path class="cls-1" d="M209.83,332.16c-.16-20.25,14.32-35.03,34.19-34.89,19.09.13,33.74,14.92,33.81,34.14.07,19.04-14.88,34.17-33.78,34.22-19.57.05-34.07-14.13-34.22-33.47ZM243.38,350.28c10.24.2,18.6-8.04,18.78-18.51.18-10.31-8.06-18.91-18.24-19.03-9.99-.12-18.86,8.51-19.04,18.52-.18,9.99,8.42,18.83,18.5,19.02Z"/>
        <path class="cls-1" d="M105.74,297.29c19.31.23,33.66,15.14,33.37,34.7-.29,19.51-14.98,33.81-34.5,33.6-19.39-.22-33.62-15.02-33.34-34.69.27-19.45,15.03-33.84,34.48-33.61ZM123.9,331.27c-.02-9.93-8.94-18.66-18.93-18.52-10.33.15-18.43,8.55-18.3,18.96.13,10.5,8.33,18.66,18.69,18.61,9.83-.05,18.55-9.01,18.54-19.05Z"/>
        <path class="cls-1" d="M175.6,125.02c-19.28,0-38.56.35-57.82-.31-3.69-.13-7.25-4.19-10.88-6.44,3.5-1.87,6.98-5.34,10.5-5.38,38.1-.4,76.21-.44,114.3,0,3.92.04,7.79,3.77,11.69,5.79-3.77,2.11-7.49,5.92-11.33,6.05-18.81.63-37.65.29-56.47.29Z"/>
      </g>
      <g>
        <path class="cls-1" d="M124.38,590.41h-15.4v-47.4h-13.6v26.8h-44.8v-63h15.6v20.8h13.8v-20.8h15.4v23.6h13.6v-30.6h15.4v90.61ZM79.98,557.41v-17.6h-13.8v17.6h13.8Z"/>
        <path class="cls-1" d="M133.78,567.01h82.6v12.8h-82.6v-12.8ZM214.18,540.81l-6.8,13c-16.4-3-27.1-11.2-32.8-21.7-5.9,10.4-16.7,18.6-33,21.7l-6.6-13c23-3.9,31-18.4,31.2-30v-6.2h16.8v6.2c-.1,11.9,7.8,26.2,31.2,30Z"/>
        <path class="cls-1" d="M270.38,527.61c-.1,10.9-8.3,18.3-20.4,18.9v17.3c9.1-.4,18.4-1.1,26.8-2.2l.4,2.6c-18.4,2.9-39.4,3.3-54.8,3.2l-1-3c7.6,0,16.4-.1,25.4-.4v-17.4c-12.2-.7-20.4-8.1-20.4-19,0-11.5,8.9-19.1,22-19,13-.1,21.9,7.5,22,19ZM248.38,543.81c11,0,18.9-7,18.8-16.2.1-9.2-7.8-16.2-18.8-16.2s-19,7-19,16.2,8,16.2,19,16.2ZM283.18,502.4h3.2v37h16v2.6h-16v45.4h-3.2v-85.01Z"/>
        <path class="cls-1" d="M105.58,678.81l-8.2,12.2c-10.4-4.2-17.1-12.1-21-21.8-3.9,10.7-10.7,19.5-21.2,24.2l-8.8-12.4c16.2-7,21.7-23.5,21.6-38.6v-1.6h-17.6v-12.6h51v12.6h-17.2v1.6c-.1,14.2,5.1,29.8,21.4,36.4ZM107.78,619.8h16v90.41h-16v-90.41Z"/>
        <path class="cls-1" d="M133.38,632.6h18.6v-11.2h15.6v11.2h18.4v12.4h-52.6v-12.4ZM159.78,648.41c13.4.1,23.6,9.3,23.6,22.2s-10.2,21.9-23.6,22c-13.6-.1-23.7-9.2-23.8-22,.1-12.9,10.2-22.1,23.8-22.2ZM159.78,679.81c5,.1,8.6-3,8.6-9.2s-3.6-9.4-8.6-9.4-8.7,3.3-8.6,9.4c-.1,6.2,3.5,9.3,8.6,9.2ZM205.98,654.01h12.2v12.8h-12.2v43.4h-15.6v-90.41h15.6v34.2Z"/>
        <path class="cls-1" d="M271.78,638.6h-16.8c.5,6.5,5.7,14,20.4,16.8l-6.8,11.6c-10.2-1.9-17.1-6.4-21.1-12.3-4.1,6.5-11.1,11.6-21.9,13.7l-6.4-11.8c14.8-3.1,19.9-10.8,20.2-18h-16.6v-12.2h16.6v-7h15.8v7h16.6v12.2ZM235.98,669.01h61.2v26h-45.4v2.8h47.4v12h-63v-26h45.4v-3h-45.6v-11.8ZM269.78,640h11.8v-20.2h15.6v46.6h-15.6v-14.2h-11.8v-12.2Z"/>
        <path class="cls-1" d="M73.78,759.6v-6.8h-21.4v-3h45.4v3h-21v6.8c-.1,12,10.9,22.7,22.2,26.8l-1.8,2.6c-9.6-3.9-18.7-11.9-21.8-21.8-3.1,11.4-12.9,20.2-22.8,24.4l-1.6-2.6c11.2-4.4,22.7-15.9,22.8-29.4ZM91.58,796.61c17.2,0,27.6,5.5,27.6,15.2s-10.4,15.3-27.6,15.4c-17.3-.1-27.7-5.7-27.6-15.4-.1-9.7,10.3-15.2,27.6-15.2ZM91.58,824.21c14.6,0,24.6-4.9,24.6-12.4s-10-12.4-24.6-12.4-24.7,4.9-24.6,12.4c-.1,7.5,9.9,12.4,24.6,12.4ZM118.78,793.21h-3v-24.2h-21v-3h21v-23.6h3v50.8Z"/>
        <path class="cls-1" d="M213.78,815.61h-77.6v-3h37v-20.8h-27v-42.8h3.2v17.4h51v-17.4h3.2v42.8h-27.4v20.8h37.6v3ZM200.38,788.81v-19.4h-51v19.4h51Z"/>
        <path class="cls-1" d="M300.18,786.21h-77.8v-3h77.8v3ZM232.18,795.61h57.8v16h-54.4v11.4h57.4v2.8h-60.4v-17h54.2v-10.4h-54.6v-2.8ZM232.58,746h57v15.2h-53.6v10.4h55v2.8h-58v-16h53.6v-9.6h-54v-2.8Z"/>
        <path class="cls-1" d="M50.18,874.4h23.8v-11.8h3.2v11.8h23.8v2.8h-50.8v-2.8ZM75.58,883.61c11.8,0,19.8,5.9,19.8,15.4s-8,15.1-19.8,15.2c-12.1-.1-20.1-5.9-20-15.2-.1-9.5,7.9-15.4,20-15.4ZM75.58,911.21c10,.1,16.8-5.1,16.8-12.2s-6.8-12.6-16.8-12.6-17.1,5.2-17,12.6c-.1,7.1,6.7,12.3,17,12.2ZM63.98,921.01h3v21.2h52.8v2.8h-55.8v-24ZM115.18,892.41h14v3h-14v31h-3.2v-63.8h3.2v29.8Z"/>
        <path class="cls-1" d="M136.18,906.61h77.2v2.8h-36.8v20.2h-3v-20.2h-37.4v-2.8ZM146.78,921.01h3.2v21.2h55v2.8h-58.2v-24ZM204.38,894.01h-56.8v-27.4h2.8v24.6h54v2.8Z"/>
        <path class="cls-1" d="M241.78,870.8c10.5,0,17.5,10.2,18,26.4h15v-32.4h3.2v77.8h-3.2v-42.4h-15c-.3,16.4-7.4,27-18,27s-17.8-11.1-17.8-28.2,7.1-28.2,17.8-28.2ZM241.78,924.41c9,0,14.9-11,14.8-25.4.1-14.6-5.8-25.4-14.8-25.4s-14.8,10.8-14.8,25.4,6,25.4,14.8,25.4ZM294.58,947.41h-3.2v-85.01h3.2v85.01Z"/>
      </g>
      <text/>
      <g>
        <path class="cls-1" d="M22.12,1.8c-6.3.06-10.92,3.9-10.92,9.24,0,4.32,3.18,7.08,8.88,8.76l4.68,1.44c6.9,2.1,10.86,5.28,10.92,10.92-.06,6.72-5.52,11.58-13.8,11.64-7.98-.06-13.2-4.5-13.56-10.8h1.92c.42,5.34,4.92,8.88,11.64,8.88s11.82-3.9,11.88-9.72c-.06-4.5-3.06-7.08-9.48-9l-4.92-1.56c-6.66-2.04-10.08-5.46-10.08-10.56C9.28,4.68,14.8,0,22.24,0s12.42,4.74,12.84,11.28h-1.92c-.42-5.58-4.68-9.42-11.04-9.48Z"/>
        <path class="cls-1" d="M64.6,11.28h1.92v31.8h-1.92v-5.16h-.24c-1.44,3.36-5.04,5.58-9.48,5.52-6.3.06-10.8-4.32-10.8-11.04V11.28h1.92v21.12c0,5.46,3.72,9.24,9.12,9.24s9.48-3.78,9.48-9.36V11.28Z"/>
        <path class="cls-1" d="M77.08.6h1.92v18.36h.24c1.5-4.8,5.28-8.16,10.44-8.16,7.56,0,12.48,6.96,12.48,16.44s-4.86,16.5-12.48,16.56c-5.22-.06-8.88-3.48-10.44-8.16h-.24v7.44h-1.92V.6ZM89.56,41.88c6.72.06,10.74-6.3,10.68-14.64.06-8.34-4.02-14.64-10.68-14.64s-10.56,6.24-10.56,14.64,4.02,14.7,10.56,14.64Z"/>
        <path class="cls-1" d="M106.24,11.28h2.04l8.52,29.04h.24l8.64-29.04h1.92l8.52,29.04h.24l8.52-29.04h2.04l-9.48,31.8h-2.28l-8.4-28.56h-.24l-8.4,28.56h-2.4l-9.48-31.8Z"/>
        <path class="cls-1" d="M163.48,24.96c2.34-.18,7.62-.66,9.24-.72v-3.84c.06-4.74-3.36-7.8-8.76-7.8-4.44,0-8.1,2.04-9,5.76h-1.92c.72-4.74,5.34-7.56,11.04-7.56,6,0,10.56,3.6,10.56,9.72v22.56h-1.92v-6.12h-.12c-1.86,3.96-5.58,6.78-10.56,6.84-5.34-.06-9.84-3.42-9.84-9.36,0-4.8,2.88-8.82,11.28-9.48ZM162.16,42c6.06-.06,10.62-5.04,10.56-12.24v-3.78c-1.62.06-6.9.48-8.64.66-7.68.54-9.96,3.84-9.96,7.8,0,4.56,3.48,7.5,8.04,7.56Z"/>
        <path class="cls-1" d="M183.34,54.96v-1.8c.18,0,.54.06.84.12,2.16-.06,4.8-.66,6.48-5.28l1.56-4.44-11.64-32.28h2.04l10.44,29.4h.24l10.44-29.4h2.04l-13.44,37.44c-1.44,4.14-4.02,6.3-8.04,6.24-.36.06-.72.06-.96,0Z"/>
        <path class="cls-1" d="M225.1,27.48h-11.4v-1.92h11.4v-11.28h1.8v11.28h11.4v1.92h-11.4v11.28h-1.8v-11.28Z"/>
        <path class="cls-1" d="M249.82.6h13.56c7.38.06,11.58,4.26,11.64,10.92-.06,5.04-2.58,8.82-6.6,9.84v.24c4.5.3,8.22,4.5,8.16,10.56.06,6.54-4.26,10.92-12,10.92h-14.76V.6ZM264.46,20.64c5.64,0,8.58-4.2,8.64-9.12-.06-5.7-3.66-9-9.72-9h-11.64v18.12h12.72ZM264.58,41.28c6.3-.06,10.14-3.72,10.08-9.12.06-5.64-4.08-9.72-9.96-9.72h-12.96v18.84h12.84Z"/>
        <path class="cls-1" d="M305.62,11.28h1.92v31.8h-1.92v-5.16h-.24c-1.44,3.36-5.04,5.58-9.48,5.52-6.3.06-10.8-4.32-10.8-11.04V11.28h1.92v21.12c0,5.46,3.72,9.24,9.12,9.24s9.48-3.78,9.48-9.36V11.28Z"/>
        <path class="cls-1" d="M326.74,12.6c-4.86-.06-8.22,2.7-8.28,6.6.06,3.18,2.1,5.34,6.36,6.36l4.92,1.32c4.86,1.14,7.32,4.02,7.32,8.04,0,5.22-4.32,8.82-10.92,8.88-6-.06-9.96-3.12-10.8-8.28h2.04c.72,4.14,3.84,6.42,8.76,6.48,5.46-.06,9-2.76,9-6.96,0-3.12-1.98-5.4-6-6.36l-4.92-1.32c-4.98-1.2-7.62-4.02-7.68-8.04.06-5.1,4.2-8.58,10.2-8.52,5.58,0,9.24,3.12,10.08,7.56h-2.04c-.72-3.6-3.72-5.76-8.04-5.76Z"/>
      </g>
    </g>
  </g>
</svg>